<svg version="1.1" id="Layer_1" xmlns="http://www.w3.org/2000/svg" xmlns:xlink="http://www.w3.org/1999/xlink" x="0px" y="0px"
	 width="100%" viewBox="0 0 980 980" enable-background="new 0 0 980 980" xml:space="preserve">
<path fill="#030303" opacity="1.000000" stroke="none" 
	d="
M0.999997,694.000000 
	C1.000000,675.312439 1.000000,656.624878 1.402713,637.382080 
	C2.159088,634.538513 2.594285,632.259399 2.854287,629.960510 
	C7.439745,589.415588 19.212057,551.024658 39.214874,515.513916 
	C84.330780,435.420227 151.490219,383.501221 240.600983,360.400055 
	C245.066101,359.242523 245.799362,357.368408 245.795990,353.335571 
	C245.708160,248.006851 245.727753,142.678024 245.750916,37.349224 
	C245.754852,19.493891 256.055573,6.168264 273.426971,2.058475 
	C275.719879,2.093333 277.550873,1.999593 279.381897,1.999492 
	C396.497101,1.993048 513.612305,1.995227 630.727478,1.987833 
	C633.217896,1.987675 635.708374,1.885137 638.524231,2.027090 
	C646.125000,3.502377 652.167908,7.027012 656.945862,12.578294 
	C666.802124,24.029821 668.964355,36.981533 662.824219,50.696724 
	C656.350098,65.157799 644.309814,71.487663 628.776978,71.490669 
	C526.792725,71.510406 424.808502,71.493477 322.824249,71.488525 
	C320.704224,71.488419 318.584167,71.488503 316.500580,71.488503 
	C316.500580,164.983246 316.500580,257.874878 316.500580,350.630615 
	C327.969421,351.302521 339.057312,351.952148 350.668945,352.632416 
	C350.668945,350.543854 350.668854,348.582672 350.668976,346.621521 
	C350.673309,278.798798 350.635284,210.976044 350.706055,143.153397 
	C350.729584,120.629257 365.610260,105.939888 388.023682,105.950218 
	C410.186920,105.960434 432.350189,105.952553 454.513428,105.952583 
	C547.999023,105.952690 641.484558,105.960846 734.970154,105.941727 
	C745.517822,105.939568 754.662415,109.396263 761.687500,117.295174 
	C771.872986,128.747559 774.050659,142.013351 767.763184,155.838211 
	C761.448120,169.723648 749.856079,176.388809 734.577759,176.390823 
	C632.093567,176.404404 529.609375,176.398224 427.125214,176.398453 
	C425.193542,176.398453 423.261841,176.398453 421.090302,176.398453 
	C421.090302,186.947983 421.090363,196.770981 421.090240,206.593979 
	C421.089691,259.252502 421.125580,311.911133 421.007050,364.569397 
	C420.999084,368.101501 421.928833,369.844696 425.381744,371.018066 
	C431.673523,373.156128 437.784454,375.839081 443.925385,378.403595 
	C447.654510,379.960876 451.298401,381.722260 455.537018,383.644318 
	C455.537018,381.610687 455.536835,380.473907 455.537018,379.337128 
	C455.544373,335.844238 455.486633,292.351227 455.585297,248.858551 
	C455.638641,225.350052 470.312347,210.885590 493.779175,210.885605 
	C596.263367,210.885727 698.747620,210.967560 801.231506,210.793289 
	C814.187744,210.771255 824.608948,214.852844 833.783752,224.152435 
	C866.422729,257.235748 899.864319,289.536804 932.121521,322.983246 
	C949.127258,340.615936 970.242798,354.771149 981.000000,378.000000 
	C981.000000,535.020874 981.000000,692.041809 980.635803,849.561707 
	C973.192322,869.508606 959.062988,876.374939 938.771057,876.268799 
	C842.978882,875.767578 747.182678,876.045349 651.387878,876.045349 
	C619.400757,876.045410 587.413452,876.085327 555.426636,875.986755 
	C552.068970,875.976379 549.635437,876.598694 547.237671,879.343628 
	C542.542236,884.719116 537.365234,889.698181 532.162170,894.602234 
	C483.468658,940.496643 426.080322,968.477112 359.803253,978.107971 
	C353.854370,978.972412 347.933746,980.031372 342.000000,981.000000 
	C324.312439,981.000000 306.624878,981.000000 288.338684,980.609680 
	C273.971222,977.987976 260.036896,976.485168 246.461777,973.401062 
	C182.816269,958.942017 128.706787,927.606995 84.476372,879.645020 
	C38.159134,829.420105 11.008211,770.203308 2.851624,702.316467 
	C2.514514,699.510681 1.629662,696.770630 0.999997,694.000000 
M526.030640,414.497864 
	C526.026306,419.162506 525.783997,423.845032 526.132202,428.483215 
	C526.275635,430.393799 527.277710,432.588959 528.589172,434.007660 
	C539.315308,445.611145 551.057312,456.380463 560.904724,468.673615 
	C610.687256,530.820312 634.071899,601.813171 630.572205,681.503784 
	C628.865479,720.367859 619.737793,757.467834 604.059265,793.009033 
	C602.216736,797.185913 600.336792,801.346252 598.338989,805.816772 
	C702.740051,805.816772 806.358154,805.816772 910.116272,805.816772 
	C910.116272,689.285400 910.116272,572.933472 910.116272,456.324585 
	C907.208130,456.324585 904.720459,456.324585 902.232788,456.324585 
	C858.906006,456.324585 815.579224,456.339203 772.252441,456.318451 
	C750.713745,456.308136 735.464233,441.044739 735.460144,419.468872 
	C735.451904,375.477203 735.489319,331.485504 735.507751,287.493835 
	C735.508606,285.543213 735.507935,283.592560 735.507935,281.669922 
	C665.346558,281.669922 595.805176,281.669922 526.030701,281.669922 
	C526.030701,325.860718 526.030701,369.679779 526.030640,414.497864 
M359.838165,597.845093 
	C357.851318,597.671875 355.866333,597.375244 353.877289,597.344727 
	C335.916473,597.068848 317.948547,596.436096 299.995483,596.718872 
	C284.377563,596.964783 268.777161,598.280945 253.166443,599.073059 
	C250.425629,599.212219 249.209290,600.120239 248.937073,603.211426 
	C245.262817,644.933533 245.148941,686.638123 248.938766,728.359192 
	C249.209686,731.341736 249.831970,732.895264 253.177612,733.042480 
	C272.952332,733.912537 292.721161,735.739685 312.489563,735.708557 
	C334.094604,735.674500 355.691925,733.811035 377.304718,733.127747 
	C381.825165,732.984802 382.916840,731.375305 383.025452,727.314819 
	C383.723389,701.224121 385.032532,675.141052 385.222137,649.048889 
	C385.333130,633.782288 383.693146,618.505737 382.962616,603.227905 
	C382.820892,600.264160 381.519440,599.170288 378.699310,599.030762 
	C372.719025,598.734741 366.747833,598.255798 359.838165,597.845093 
M540.572266,688.041260 
	C545.483337,684.092896 550.740234,680.498596 555.226501,676.115417 
	C562.430359,669.077148 562.275024,662.978699 555.239990,655.861084 
	C552.445435,653.033813 549.444458,650.343872 546.237854,648.001770 
	C530.083496,636.203003 511.900024,628.443542 493.074280,622.184326 
	C480.508850,618.006531 467.710815,614.528625 455.094238,610.760498 
	C455.094238,647.944031 455.094238,684.304199 455.094238,720.997925 
	C459.825714,719.757751 464.476562,718.578918 469.105255,717.318665 
	C493.897003,710.568787 517.984375,702.082520 540.572266,688.041260 
M306.496429,906.041565 
	C313.702087,911.809265 317.269501,912.704895 322.851044,907.847900 
	C328.180115,903.210632 333.158417,897.801941 337.007721,891.896057 
	C354.245331,865.448669 363.347565,835.729370 370.650116,805.361206 
	C370.702271,805.144409 370.353760,804.831360 370.638336,805.303955 
	C333.895874,805.303955 297.617279,805.303955 261.112030,805.303955 
	C266.380096,827.338013 272.977142,849.087830 282.665497,869.825073 
	C288.747528,882.843201 295.432220,895.458130 306.496429,906.041565 
M89.045921,645.526306 
	C84.495842,649.406799 79.612335,652.965210 75.477127,657.246460 
	C69.865814,663.055847 69.859764,668.360657 75.126640,674.480042 
	C77.922867,677.728821 81.127785,680.747131 84.572090,683.296936 
	C105.380104,698.700867 129.335327,707.308960 153.764496,714.781006 
	C161.479599,717.140808 169.342056,719.018860 176.674881,720.992981 
	C176.674881,684.154785 176.674881,647.835632 176.674881,611.367188 
	C176.987595,611.466797 176.813156,611.345154 176.672302,611.376099 
	C174.248062,611.910034 171.807709,612.386475 169.409958,613.022766 
	C141.497757,620.430481 114.159630,629.272644 89.045921,645.526306 
M274.772491,481.253265 
	C269.972717,496.436462 265.172943,511.619659 260.341644,526.902588 
	C297.753906,526.902588 334.137573,526.902588 370.927917,526.902588 
	C368.895813,519.412537 367.054993,511.997070 364.868408,504.684967 
	C358.030762,481.819183 349.999756,459.428680 336.551666,439.457367 
	C333.320587,434.658966 329.527954,430.114502 325.378082,426.087524 
	C318.891907,419.793610 313.085327,419.914490 306.540344,426.115326 
	C303.175049,429.303680 299.997742,432.798676 297.292694,436.556213 
	C287.591095,450.032654 280.806946,465.029785 274.772491,481.253265 
M525.329285,540.163025 
	C499.525574,497.744720 464.110413,466.091125 418.974915,444.366669 
	C418.974915,445.555237 418.884369,445.890289 418.987732,446.147278 
	C430.449249,474.640106 438.359711,504.138336 444.262177,534.234436 
	C444.562988,535.768250 447.131561,537.506409 448.953522,537.993958 
	C470.778748,543.834595 492.711395,549.277771 514.504395,555.233032 
	C522.078735,557.302856 529.345520,560.498474 536.752747,563.179871 
	C537.034790,562.920837 537.316772,562.661804 537.598816,562.402771 
	C533.647400,555.190063 529.695984,547.977417 525.329285,540.163025 
M200.177841,881.265503 
	C204.253983,883.350708 208.330124,885.435852 213.392899,888.025696 
	C212.844925,886.194824 212.679947,885.429810 212.392487,884.713989 
	C201.312851,857.126099 193.662827,828.551575 188.082764,799.405945 
	C187.406540,795.873840 185.918045,794.682739 182.503357,793.846558 
	C162.152603,788.863464 141.823990,783.762451 121.620605,778.217529 
	C112.592484,775.739685 103.873001,772.137207 94.025948,768.700439 
	C117.723633,817.877563 152.642899,855.022400 200.177841,881.265503 
M194.598862,503.171265 
	C200.492889,483.706360 206.386917,464.241455 212.339386,444.583557 
	C159.451981,470.249542 120.096489,509.414459 94.334587,562.879150 
	C95.439644,562.879150 95.966019,563.021790 96.368721,562.858826 
	C124.841728,551.336304 154.390594,543.610535 184.460342,537.653809 
	C185.749710,537.398438 187.357391,535.542236 187.686874,534.162048 
	C190.080292,524.136108 192.183395,514.040833 194.598862,503.171265 
M530.189148,783.682678 
	C532.613586,778.934692 535.037964,774.186768 537.642822,769.085510 
	C536.428467,769.085510 536.071594,768.988525 535.799316,769.099304 
	C507.333496,780.681335 477.792725,788.480957 447.698975,794.421997 
	C446.253998,794.707275 444.463409,796.999878 444.134491,798.621460 
	C438.436462,826.716614 431.400085,854.420166 420.876038,881.150696 
	C420.115417,883.082581 419.450806,885.052307 418.589661,887.422607 
	C438.198425,880.301636 474.951813,853.950073 490.284698,837.419556 
	C505.414978,821.107422 518.946777,803.733032 530.189148,783.682678 
M830.683594,320.804321 
	C822.806091,312.815430 814.928589,304.826569 806.257507,296.032898 
	C806.257507,326.751373 806.257507,356.082764 806.257507,385.490540 
	C835.831787,385.490540 865.129517,385.490540 895.902954,385.490540 
	C873.713562,363.454407 852.474182,342.361694 830.683594,320.804321 
z"/>
<path fill="#FDFDFD" opacity="1.000000" stroke="none" 
	d="
M981.000000,377.531342 
	C970.242798,354.771149 949.127258,340.615936 932.121521,322.983246 
	C899.864319,289.536804 866.422729,257.235748 833.783752,224.152435 
	C824.608948,214.852844 814.187744,210.771255 801.231506,210.793289 
	C698.747620,210.967560 596.263367,210.885727 493.779175,210.885605 
	C470.312347,210.885590 455.638641,225.350052 455.585297,248.858551 
	C455.486633,292.351227 455.544373,335.844238 455.537018,379.337128 
	C455.536835,380.473907 455.537018,381.610687 455.537018,383.644318 
	C451.298401,381.722260 447.654510,379.960876 443.925385,378.403595 
	C437.784454,375.839081 431.673523,373.156128 425.381744,371.018066 
	C421.928833,369.844696 420.999084,368.101501 421.007050,364.569397 
	C421.125580,311.911133 421.089691,259.252502 421.090240,206.593979 
	C421.090363,196.770981 421.090302,186.947983 421.090302,176.398453 
	C423.261841,176.398453 425.193542,176.398453 427.125214,176.398453 
	C529.609375,176.398224 632.093567,176.404404 734.577759,176.390823 
	C749.856079,176.388809 761.448120,169.723648 767.763184,155.838211 
	C774.050659,142.013351 771.872986,128.747559 761.687500,117.295174 
	C754.662415,109.396263 745.517822,105.939568 734.970154,105.941727 
	C641.484558,105.960846 547.999023,105.952690 454.513428,105.952583 
	C432.350189,105.952553 410.186920,105.960434 388.023682,105.950218 
	C365.610260,105.939888 350.729584,120.629257 350.706055,143.153397 
	C350.635284,210.976044 350.673309,278.798798 350.668976,346.621521 
	C350.668854,348.582672 350.668945,350.543854 350.668945,352.632416 
	C339.057312,351.952148 327.969421,351.302521 316.500580,350.630615 
	C316.500580,257.874878 316.500580,164.983246 316.500580,71.488503 
	C318.584167,71.488503 320.704224,71.488419 322.824249,71.488525 
	C424.808502,71.493477 526.792725,71.510406 628.776978,71.490669 
	C644.309814,71.487663 656.350098,65.157799 662.824219,50.696724 
	C668.964355,36.981533 666.802124,24.029821 656.945862,12.578294 
	C652.167908,7.027012 646.125000,3.502377 638.536987,1.804548 
	C638.224304,1.385277 638.000000,1.000000 638.000000,1.000000 
	C752.263855,1.000000 866.527649,1.000000 981.000000,1.000000 
	C981.000000,126.354149 981.000000,251.708420 981.000000,377.531342 
z"/>
<path fill="#FEFEFE" opacity="1.000000" stroke="none" 
	d="
M272.965088,1.973575 
	C256.055573,6.168264 245.754852,19.493891 245.750916,37.349224 
	C245.727753,142.678024 245.708160,248.006851 245.795990,353.335571 
	C245.799362,357.368408 245.066101,359.242523 240.600983,360.400055 
	C151.490219,383.501221 84.330780,435.420227 39.214874,515.513916 
	C19.212057,551.024658 7.439745,589.415588 2.854287,629.960510 
	C2.594285,632.259399 2.159088,634.538513 1.402713,636.913452 
	C1.000000,425.102142 1.000000,213.204300 1.000000,1.000000 
	C91.353996,1.000000 181.708344,1.000000 272.551697,1.244436 
	C273.040680,1.488872 272.965088,1.973575 272.965088,1.973575 
z"/>
<path fill="#FEFEFE" opacity="1.000000" stroke="none" 
	d="
M342.468658,981.000000 
	C347.933746,980.031372 353.854370,978.972412 359.803253,978.107971 
	C426.080322,968.477112 483.468658,940.496643 532.162170,894.602234 
	C537.365234,889.698181 542.542236,884.719116 547.237671,879.343628 
	C549.635437,876.598694 552.068970,875.976379 555.426636,875.986755 
	C587.413452,876.085327 619.400757,876.045410 651.387878,876.045349 
	C747.182678,876.045349 842.978882,875.767578 938.771057,876.268799 
	C959.062988,876.374939 973.192322,869.508606 980.635803,850.030396 
	C981.000000,893.641846 981.000000,937.283691 981.000000,981.000000 
	C768.312439,981.000000 555.624878,981.000000 342.468658,981.000000 
z"/>
<path fill="#FEFEFE" opacity="1.000000" stroke="none" 
	d="
M0.999997,694.468628 
	C1.629662,696.770630 2.514514,699.510681 2.851624,702.316467 
	C11.008211,770.203308 38.159134,829.420105 84.476372,879.645020 
	C128.706787,927.606995 182.816269,958.942017 246.461777,973.401062 
	C260.036896,976.485168 273.971222,977.987976 287.870026,980.609680 
	C192.406281,981.000000 96.812553,981.000000 1.000000,981.000000 
	C1.000000,885.645874 1.000000,790.291626 0.999997,694.468628 
z"/>
<path fill="#5B5B5B" opacity="1.000000" stroke="none" 
	d="
M273.426971,2.058475 
	C272.965088,1.973575 273.040680,1.488872 273.020325,1.244436 
	C394.356659,1.000000 515.713318,1.000000 637.534973,1.000000 
	C638.000000,1.000000 638.224304,1.385277 638.211548,1.607818 
	C635.708374,1.885137 633.217896,1.987675 630.727478,1.987833 
	C513.612305,1.995227 396.497101,1.993048 279.381897,1.999492 
	C277.550873,1.999593 275.719879,2.093333 273.426971,2.058475 
z"/>
<path fill="#FDFDFD" opacity="1.000000" stroke="none" 
	d="
M526.030640,413.998352 
	C526.030701,369.679779 526.030701,325.860718 526.030701,281.669922 
	C595.805176,281.669922 665.346558,281.669922 735.507935,281.669922 
	C735.507935,283.592560 735.508606,285.543213 735.507751,287.493835 
	C735.489319,331.485504 735.451904,375.477203 735.460144,419.468872 
	C735.464233,441.044739 750.713745,456.308136 772.252441,456.318451 
	C815.579224,456.339203 858.906006,456.324585 902.232788,456.324585 
	C904.720459,456.324585 907.208130,456.324585 910.116272,456.324585 
	C910.116272,572.933472 910.116272,689.285400 910.116272,805.816772 
	C806.358154,805.816772 702.740051,805.816772 598.338989,805.816772 
	C600.336792,801.346252 602.216736,797.185913 604.059265,793.009033 
	C619.737793,757.467834 628.865479,720.367859 630.572205,681.503784 
	C634.071899,601.813171 610.687256,530.820312 560.904724,468.673615 
	C551.057312,456.380463 539.315308,445.611145 528.589172,434.007660 
	C527.277710,432.588959 526.275635,430.393799 526.132202,428.483215 
	C525.783997,423.845032 526.026306,419.162506 526.030640,413.998352 
M734.499878,561.233093 
	C769.635742,561.234192 804.771606,561.225708 839.907471,561.239990 
	C860.060974,561.248169 875.647644,546.472900 876.038513,526.947571 
	C876.435669,507.111206 861.435974,491.082275 841.133911,490.941467 
	C794.177673,490.615814 747.216370,490.628632 700.259766,490.921875 
	C679.713928,491.050171 664.768311,508.252777 665.736938,528.228699 
	C666.618469,546.406128 682.134399,561.204895 701.527954,561.227478 
	C712.185242,561.239868 722.842590,561.231873 734.499878,561.233093 
M700.684937,701.029480 
	C681.207275,701.125488 665.860168,716.224854 665.868530,735.283936 
	C665.877502,755.844116 680.620972,771.087646 700.662598,771.103699 
	C747.287537,771.140869 793.912415,771.138977 840.537354,771.101685 
	C860.426819,771.085815 876.143738,755.618896 876.054382,736.293091 
	C875.961487,716.194885 860.683472,701.030090 840.518921,701.029297 
	C794.227051,701.027466 747.935120,701.029175 700.684937,701.029480 
M798.500061,595.787109 
	C769.526123,595.787109 740.552185,595.770264 711.578247,595.803223 
	C706.588074,595.808899 701.559875,595.672791 696.614929,596.208801 
	C677.549683,598.275330 664.899719,614.114075 665.874817,634.373596 
	C666.700439,651.526123 682.329773,666.109131 700.239563,666.138000 
	C747.197266,666.213684 794.155212,666.238464 841.112854,666.139648 
	C860.096191,666.099670 875.256042,651.416199 876.031677,632.744995 
	C876.824280,613.665649 862.933350,597.320618 843.933105,596.247314 
	C829.160583,595.412903 814.313843,595.891907 798.500061,595.787109 
z"/>
<path fill="#FEFEFE" opacity="1.000000" stroke="none" 
	d="
M360.305542,597.848511 
	C366.747833,598.255798 372.719025,598.734741 378.699310,599.030762 
	C381.519440,599.170288 382.820892,600.264160 382.962616,603.227905 
	C383.693146,618.505737 385.333130,633.782288 385.222137,649.048889 
	C385.032532,675.141052 383.723389,701.224121 383.025452,727.314819 
	C382.916840,731.375305 381.825165,732.984802 377.304718,733.127747 
	C355.691925,733.811035 334.094604,735.674500 312.489563,735.708557 
	C292.721161,735.739685 272.952332,733.912537 253.177612,733.042480 
	C249.831970,732.895264 249.209686,731.341736 248.938766,728.359192 
	C245.148941,686.638123 245.262817,644.933533 248.937073,603.211426 
	C249.209290,600.120239 250.425629,599.212219 253.166443,599.073059 
	C268.777161,598.280945 284.377563,596.964783 299.995483,596.718872 
	C317.948547,596.436096 335.916473,597.068848 353.877289,597.344727 
	C355.866333,597.375244 357.851318,597.671875 360.305542,597.848511 
z"/>
<path fill="#FCFCFC" opacity="1.000000" stroke="none" 
	d="
M540.276123,688.251709 
	C517.984375,702.082520 493.897003,710.568787 469.105255,717.318665 
	C464.476562,718.578918 459.825714,719.757751 455.094238,720.997925 
	C455.094238,684.304199 455.094238,647.944031 455.094238,610.760498 
	C467.710815,614.528625 480.508850,618.006531 493.074280,622.184326 
	C511.900024,628.443542 530.083496,636.203003 546.237854,648.001770 
	C549.444458,650.343872 552.445435,653.033813 555.239990,655.861084 
	C562.275024,662.978699 562.430359,669.077148 555.226501,676.115417 
	C550.740234,680.498596 545.483337,684.092896 540.276123,688.251709 
z"/>
<path fill="#FCFCFC" opacity="1.000000" stroke="none" 
	d="
M306.214539,905.819336 
	C295.432220,895.458130 288.747528,882.843201 282.665497,869.825073 
	C272.977142,849.087830 266.380096,827.338013 261.112030,805.303955 
	C297.617279,805.303955 333.895874,805.303955 370.638336,805.303955 
	C370.353760,804.831360 370.702271,805.144409 370.650116,805.361206 
	C363.347565,835.729370 354.245331,865.448669 337.007721,891.896057 
	C333.158417,897.801941 328.180115,903.210632 322.851044,907.847900 
	C317.269501,912.704895 313.702087,911.809265 306.214539,905.819336 
z"/>
<path fill="#FCFCFC" opacity="1.000000" stroke="none" 
	d="
M89.344620,645.324097 
	C114.159630,629.272644 141.497757,620.430481 169.409958,613.022766 
	C171.807709,612.386475 174.248062,611.910034 176.672302,611.376099 
	C176.813156,611.345154 176.987595,611.466797 176.674881,611.367188 
	C176.674881,647.835632 176.674881,684.154785 176.674881,720.992981 
	C169.342056,719.018860 161.479599,717.140808 153.764496,714.781006 
	C129.335327,707.308960 105.380104,698.700867 84.572090,683.296936 
	C81.127785,680.747131 77.922867,677.728821 75.126640,674.480042 
	C69.859764,668.360657 69.865814,663.055847 75.477127,657.246460 
	C79.612335,652.965210 84.495842,649.406799 89.344620,645.324097 
z"/>
<path fill="#FCFCFC" opacity="1.000000" stroke="none" 
	d="
M274.919495,480.893188 
	C280.806946,465.029785 287.591095,450.032654 297.292694,436.556213 
	C299.997742,432.798676 303.175049,429.303680 306.540344,426.115326 
	C313.085327,419.914490 318.891907,419.793610 325.378082,426.087524 
	C329.527954,430.114502 333.320587,434.658966 336.551666,439.457367 
	C349.999756,459.428680 358.030762,481.819183 364.868408,504.684967 
	C367.054993,511.997070 368.895813,519.412537 370.927917,526.902588 
	C334.137573,526.902588 297.753906,526.902588 260.341644,526.902588 
	C265.172943,511.619659 269.972717,496.436462 274.919495,480.893188 
z"/>
<path fill="#FBFBFB" opacity="1.000000" stroke="none" 
	d="
M525.536926,540.463867 
	C529.695984,547.977417 533.647400,555.190063 537.598816,562.402771 
	C537.316772,562.661804 537.034790,562.920837 536.752747,563.179871 
	C529.345520,560.498474 522.078735,557.302856 514.504395,555.233032 
	C492.711395,549.277771 470.778748,543.834595 448.953522,537.993958 
	C447.131561,537.506409 444.562988,535.768250 444.262177,534.234436 
	C438.359711,504.138336 430.449249,474.640106 418.987732,446.147278 
	C418.884369,445.890289 418.974915,445.555237 418.974915,444.366669 
	C464.110413,466.091125 499.525574,497.744720 525.536926,540.463867 
z"/>
<path fill="#FBFBFB" opacity="1.000000" stroke="none" 
	d="
M199.838135,881.121704 
	C152.642899,855.022400 117.723633,817.877563 94.025948,768.700439 
	C103.873001,772.137207 112.592484,775.739685 121.620605,778.217529 
	C141.823990,783.762451 162.152603,788.863464 182.503357,793.846558 
	C185.918045,794.682739 187.406540,795.873840 188.082764,799.405945 
	C193.662827,828.551575 201.312851,857.126099 212.392487,884.713989 
	C212.679947,885.429810 212.844925,886.194824 213.392899,888.025696 
	C208.330124,885.435852 204.253983,883.350708 199.838135,881.121704 
z"/>
<path fill="#FBFBFB" opacity="1.000000" stroke="none" 
	d="
M194.488586,503.569397 
	C192.183395,514.040833 190.080292,524.136108 187.686874,534.162048 
	C187.357391,535.542236 185.749710,537.398438 184.460342,537.653809 
	C154.390594,543.610535 124.841728,551.336304 96.368721,562.858826 
	C95.966019,563.021790 95.439644,562.879150 94.334587,562.879150 
	C120.096489,509.414459 159.451981,470.249542 212.339386,444.583557 
	C206.386917,464.241455 200.492889,483.706360 194.488586,503.569397 
z"/>
<path fill="#FBFBFB" opacity="1.000000" stroke="none" 
	d="
M530.017212,784.006470 
	C518.946777,803.733032 505.414978,821.107422 490.284698,837.419556 
	C474.951813,853.950073 438.198425,880.301636 418.589661,887.422607 
	C419.450806,885.052307 420.115417,883.082581 420.876038,881.150696 
	C431.400085,854.420166 438.436462,826.716614 444.134491,798.621460 
	C444.463409,796.999878 446.253998,794.707275 447.698975,794.421997 
	C477.792725,788.480957 507.333496,780.681335 535.799316,769.099304 
	C536.071594,768.988525 536.428467,769.085510 537.642822,769.085510 
	C535.037964,774.186768 532.613586,778.934692 530.017212,784.006470 
z"/>
<path fill="#FBFBFB" opacity="1.000000" stroke="none" 
	d="
M830.959229,321.036652 
	C852.474182,342.361694 873.713562,363.454407 895.902954,385.490540 
	C865.129517,385.490540 835.831787,385.490540 806.257507,385.490540 
	C806.257507,356.082764 806.257507,326.751373 806.257507,296.032898 
	C814.928589,304.826569 822.806091,312.815430 830.959229,321.036652 
z"/>
<path fill="#030303" opacity="1.000000" stroke="none" 
	d="
M733.999878,561.233093 
	C722.842590,561.231873 712.185242,561.239868 701.527954,561.227478 
	C682.134399,561.204895 666.618469,546.406128 665.736938,528.228699 
	C664.768311,508.252777 679.713928,491.050171 700.259766,490.921875 
	C747.216370,490.628632 794.177673,490.615814 841.133911,490.941467 
	C861.435974,491.082275 876.435669,507.111206 876.038513,526.947571 
	C875.647644,546.472900 860.060974,561.248169 839.907471,561.239990 
	C804.771606,561.225708 769.635742,561.234192 733.999878,561.233093 
z"/>
<path fill="#040404" opacity="1.000000" stroke="none" 
	d="
M701.164062,701.029419 
	C747.935120,701.029175 794.227051,701.027466 840.518921,701.029297 
	C860.683472,701.030090 875.961487,716.194885 876.054382,736.293091 
	C876.143738,755.618896 860.426819,771.085815 840.537354,771.101685 
	C793.912415,771.138977 747.287537,771.140869 700.662598,771.103699 
	C680.620972,771.087646 665.877502,755.844116 665.868530,735.283936 
	C665.860168,716.224854 681.207275,701.125488 701.164062,701.029419 
z"/>
<path fill="#030303" opacity="1.000000" stroke="none" 
	d="
M799.000122,595.787109 
	C814.313843,595.891907 829.160583,595.412903 843.933105,596.247314 
	C862.933350,597.320618 876.824280,613.665649 876.031677,632.744995 
	C875.256042,651.416199 860.096191,666.099670 841.112854,666.139648 
	C794.155212,666.238464 747.197266,666.213684 700.239563,666.138000 
	C682.329773,666.109131 666.700439,651.526123 665.874817,634.373596 
	C664.899719,614.114075 677.549683,598.275330 696.614929,596.208801 
	C701.559875,595.672791 706.588074,595.808899 711.578247,595.803223 
	C740.552185,595.770264 769.526123,595.787109 799.000122,595.787109 
z"/>
</svg>