<?xml version="1.0" encoding="UTF-8" standalone="no"?>
<!-- Uploaded to: SVG Repo, www.svgrepo.com, Generator: SVG Repo Mixer Tools -->

<svg
   xmlns:dc="http://purl.org/dc/elements/1.1/"
   xmlns:cc="http://creativecommons.org/ns#"
   xmlns:rdf="http://www.w3.org/1999/02/22-rdf-syntax-ns#"
   xmlns:svg="http://www.w3.org/2000/svg"
   xmlns="http://www.w3.org/2000/svg"
   xmlns:sodipodi="http://sodipodi.sourceforge.net/DTD/sodipodi-0.dtd"
   xmlns:inkscape="http://www.inkscape.org/namespaces/inkscape"
   width="16"
   height="16"
   viewBox="0 0 0.3 0.3"
   id="horse-riding"
   version="1.1"
   sodipodi:docname="horse.svg"
   style="fill: blue"
   inkscape:version="0.92.5 (2060ec1f9f, 2020-04-08)">
  <metadata
     id="metadata9">
    <rdf:RDF>
      <cc:Work
         rdf:about="">
        <dc:format>image/svg+xml</dc:format>
        <dc:type
           rdf:resource="http://purl.org/dc/dcmitype/StillImage" />
        <dc:title />
      </cc:Work>
    </rdf:RDF>
  </metadata>
  <defs
     id="defs7" />
  <sodipodi:namedview
     pagecolor="#ffffff"
     bordercolor="#666666"
     borderopacity="1"
     objecttolerance="10"
     gridtolerance="10"
     guidetolerance="10"
     inkscape:pageopacity="0"
     inkscape:pageshadow="2"
     inkscape:window-width="1294"
     inkscape:window-height="704"
     id="namedview5"
     showgrid="false"
     inkscape:zoom="22.627417"
     inkscape:cx="9.9666462"
     inkscape:cy="7.1520421"
     inkscape:window-x="72"
     inkscape:window-y="27"
     inkscape:window-maximized="1"
     inkscape:current-layer="horse-riding" />
  <path
     d="m 0.12010328,0.01997681 a 0.02001013,0.02000286 0 1 1 0.0200101,0.02000073 0.02001013,0.02000286 0 0 1 -0.0200101,-0.02000073 z m 0.0400202,0.05000857 a 0.00968491,0.00968138 0 0 0 0,-0.0011463 0.00944478,0.00944134 0 0 0 -0.0100048,-0.0088405 h -0.0200101 a 0.00968491,0.00968138 0 0 0 -0.00116,0 0.00944478,0.00944134 0 0 0 -0.008844,0.01000032 v 0.07000998 h 0.0400202 z m 0.13706937,0.07289006 -0.0410208,-0.04688645 0.001702,-0.01018242 a 0.00956484,0.00956136 0 0 0 1.6099e-4,-0.0012813 0.00500253,0.00500072 0 0 0 -0.005002,-0.0049896 0.0069235,0.00692099 0 0 0 -0.00316,0.0011463 l -0.0697385,0.05931196 h -0.0200101 l 0.0200101,0.0200007 v 0.0300012 a 0.01000507,0.01000144 0 0 1 -0.0200101,0 V 0.16999507 L 0.12010321,0.13999391 H 0.08008305 A 0.03001519,0.03000428 0 0 0 0.05521044,0.15321769 0.02933484,0.02932418 0 0 0 0.03131845,0.13999401 H 0.0300593 A 0.02899467,0.02898414 0 0 0 4.4098438e-5,0.16799908 v 0.001753 a 0.07565827,0.07563079 0 0 0 0.01118571156,0.0382885 0.00556282,0.00556079 0 0 0 0.0038213,0.002023 0.00500253,0.00500072 0 0 0 0.0050023,-0.00499 v -0.0250045 c 0,0 -3.9845e-4,-0.0184835 0.01506758,-0.0200007 0.01000504,-9.4416e-4 0.01494763,0.005057 0.01494763,0.0100006 v 0.0500086 l -0.01000503,0.0400082 v 0.0350047 a 0.00500253,0.00500072 0 0 0 0.0050027,0.00499 0.00508257,0.00508073 0 0 0 0.0050023,-0.004652 V 0.26009956 L 0.0800838,0.22009132 v 0.0200007 l 0.01000503,0.0560102 a 0.00510258,0.00510073 0 0 0 0.0049226,0.003979 0.00500253,0.00500072 0 0 0 0.0050829,-0.004923 v 0 l -0.0029005,-0.0490847 0.01290669,-0.0260022 h 0.0500237 v 0.0200007 l 0.0101652,0.0562663 a 0.00514261,0.00514074 0 0 0 0.004842,0.003709 0.00500253,0.00500072 0 0 0 0.005002,-0.00499 v -0.0550054 l 0.007344,-0.0200007 a 0.02311169,0.0231033 0 0 0 0.0108651,-0.0120033 l 0.0432419,-0.0753506 a 0.01726874,0.01726247 0 0 0 0.0204704,0.008004 l 0.0213307,0.0163593 a 0.01182599,0.01182168 0 0 0 0.007003,0.002697 0.00974493,0.00974139 0 0 0 0.009504,-0.008004 0.01104559,0.01104158 0 0 0 -0.002702,-0.008841 z"
     id="path2"
     inkscape:connector-curvature="0"
     style="stroke-width:0.02000649;fill:#ff0000" />
</svg>
